<svg width="219" height="253" viewBox="0 0 219 253" fill="none" xmlns="http://www.w3.org/2000/svg">
<rect width="125.61" height="125.61" transform="matrix(0.866025 -0.5 2.20305e-08 1 109.445 126.392)" fill="url(#paint0_linear_43_2298)"/>
<rect width="125.61" height="125.61" transform="matrix(0.866025 0.5 -2.20305e-08 1 0.664062 63.5859)" fill="url(#paint1_linear_43_2298)"/>
<rect width="38.538" height="3.37859" rx="1" transform="matrix(0.866025 0.5 -2.20305e-08 1 7.03906 168.156)" fill="white"/>
<rect width="38.538" height="3.37859" rx="1" transform="matrix(0.866025 0.5 -2.20305e-08 1 7.03906 174.668)" fill="white"/>
<rect width="38.538" height="3.37859" rx="1" transform="matrix(0.866025 0.5 -2.20305e-08 1 7.03906 181.18)" fill="white"/>
<g style="mix-blend-mode:darken">
<path d="M0.664062 63.5859L105.115 3.28101C107.507 1.9003 111.384 1.9003 113.776 3.28101L218.227 63.5859L109.445 126.391L0.664062 63.5859Z" fill="url(#paint2_linear_43_2298)"/>
</g>
<g style="mix-blend-mode:screen" opacity="0.4">
<rect width="125.61" height="125.61" transform="matrix(0.866025 -0.5 0.866025 0.5 1.07031 109.982)" fill="url(#paint3_linear_43_2298)"/>
</g>
<g style="mix-blend-mode:screen" opacity="0.4">
<rect width="125.61" height="125.61" transform="matrix(0.866025 -0.5 0.866025 0.5 1.07031 155.126)" fill="url(#paint4_linear_43_2298)"/>
</g>
<rect width="28.3925" height="125.61" rx="1" transform="matrix(0.866025 -0.5 0.866025 0.5 42.7617 39.2817)" fill="white"/>
<path d="M151.438 102.146L176.234 87.83L176.234 137.462C176.234 138.248 175.484 139.16 174.907 139.074L164.297 137.498C164.015 137.456 163.657 137.663 163.375 138.03L152.764 151.859C152.188 152.61 151.438 152.565 151.438 151.778L151.438 102.146Z" fill="white"/>
<defs>
<linearGradient id="paint0_linear_43_2298" x1="149.206" y1="65.8883" x2="16.4272" y2="160.544" gradientUnits="userSpaceOnUse">
<stop stop-color="#FF7C32"/>
<stop offset="1" stop-color="#CB3068"/>
</linearGradient>
<linearGradient id="paint1_linear_43_2298" x1="150.941" y1="-35.5035" x2="-61.2105" y2="-22.8085" gradientUnits="userSpaceOnUse">
<stop stop-color="#E7702E"/>
<stop offset="1" stop-color="#CB3068"/>
</linearGradient>
<linearGradient id="paint2_linear_43_2298" x1="173.753" y1="63.5859" x2="101.395" y2="-47.9066" gradientUnits="userSpaceOnUse">
<stop stop-color="#FF7C32"/>
<stop offset="1" stop-color="#CB3068"/>
</linearGradient>
<linearGradient id="paint3_linear_43_2298" x1="99.9331" y1="99.9331" x2="91.2464" y2="-48.755" gradientUnits="userSpaceOnUse">
<stop stop-color="#FF7C32"/>
<stop offset="1" stop-color="#CB3068"/>
</linearGradient>
<linearGradient id="paint4_linear_43_2298" x1="99.9331" y1="99.9331" x2="91.2464" y2="-48.755" gradientUnits="userSpaceOnUse">
<stop stop-color="#FF7C32"/>
<stop offset="1" stop-color="#CB3068"/>
</linearGradient>
</defs>
</svg>
